<?xml version="1.0" encoding="utf-8"?>
<!-- Generator: Adobe Illustrator 19.1.0, SVG Export Plug-In . SVG Version: 6.00 Build 0)  -->
<svg version="1.1" id="Layer_1" xmlns="http://www.w3.org/2000/svg" xmlns:xlink="http://www.w3.org/1999/xlink" x="0px" y="0px"
	 viewBox="0 0 596.2 671.2" style="enable-background:new 0 0 596.2 671.2;" xml:space="preserve">
<style type="text/css">
	.st0{fill:#243140;}
	.st1{fill:#FAC834;}
	.st2{fill:#405365;stroke:#ADA9A4;stroke-width:6;stroke-miterlimit:10;}
	.st3{fill:#EDECE0;}
</style>
<g>
	
		<image style="overflow:visible;opacity:0.75;" width="2243" height="2243" xlink:href="21BA43666211B77E.png"  transform="matrix(0.24 0 0 0.24 39.2808 46.8582)">
	</image>
	<g>
		<path class="st0" d="M305.2,550.5c-109.5,0-205.7-73.9-234.1-179.8c-16.8-62.6-8.2-127.9,24.2-184s84.7-96.2,147.3-113
			c20.6-5.5,41.8-8.3,62.9-8.3c109.5,0,205.7,73.9,234.1,179.8c16.8,62.6,8.2,127.9-24.2,184c-32.4,56.1-84.7,96.2-147.3,113
			C347.5,547.7,326.4,550.5,305.2,550.5C305.2,550.5,305.2,550.5,305.2,550.5z"/>
		<path class="st1" d="M305.5,67.9c106,0,203,70.7,231.7,178c34.3,128-41.7,259.6-169.7,294c-20.8,5.6-41.7,8.2-62.3,8.2
			c-106,0-203-70.7-231.7-178c-34.3-128,41.7-259.6,169.7-294C264.1,70.5,285,67.9,305.5,67.9 M305.5,62.9
			c-21.4,0-42.7,2.8-63.6,8.4c-31.9,8.6-61.3,23.1-87.1,43.3c-25,19.5-45.7,43.3-61.6,70.9C77.3,213,67,242.9,62.6,274.2
			c-4.5,32.5-2.5,65.2,6.1,97.1c7.2,26.8,18.7,51.9,34.1,74.6c14.9,21.9,33.3,41.2,54.6,57.3c21,15.9,44.4,28.3,69.3,36.8
			c25.4,8.6,51.8,13,78.5,13c21.4,0,42.7-2.8,63.6-8.4c31.9-8.6,61.3-23.1,87.1-43.3c25-19.5,45.7-43.3,61.6-70.9
			c15.9-27.6,26.2-57.4,30.6-88.8c4.5-32.5,2.5-65.2-6.1-97.1c-7.2-26.8-18.7-51.9-34.1-74.6c-14.9-21.9-33.3-41.2-54.6-57.3
			c-21-15.9-44.4-28.3-69.3-36.8C358.6,67.2,332.2,62.9,305.5,62.9L305.5,62.9z"/>
	</g>
</g>
<circle class="st2" cx="305.8" cy="307.8" r="154.1"/>
<path class="st1" d="M275.1,174.9l49.5,76.2c1.2,1.8,3.4,2.6,5.4,2.1l87.8-23.5c4.6-1.2,8.2,4.2,5.1,7.9l-57.2,70.6
	c-1.4,1.7-1.5,4-0.3,5.8l49.5,76.2c2.6,4-1.5,9.1-5.9,7.3L324.1,365c-2-0.8-4.3-0.2-5.6,1.5l-57.2,70.6c-3,3.7-9.1,1.4-8.8-3.4
	l4.8-90.7c0.1-2.1-1.2-4.1-3.2-4.9l-84.8-32.6c-4.5-1.7-4.1-8.2,0.5-9.4l87.8-23.5c2.1-0.6,3.6-2.4,3.7-4.5l4.8-90.7
	C266.2,172.5,272.5,170.9,275.1,174.9z"/>
<g>
	<path class="st1" d="M168.9,489.6l-7.4-7.3l5.4-13.6l-19-18.5l-13.6,5.7l-7.2-7l57-23.2l6.5,6.4L168.9,489.6z M179,437.2l-22.5,9.3
		l13.8,13.5L179,437.2z"/>
	<path class="st1" d="M203.9,509.4l-8.8-4.7l22.1-41.3l-15.7-8.4l4.3-8l40.1,21.4l-4.3,8L226,468L203.9,509.4z"/>
	<path class="st1" d="M257.7,504.6l-4,23.2l-9.7-1.7l9.6-55.2l9.7,1.7l-4,22.9l26.3,4.6l4-22.9l9.7,1.7l-9.6,55.2l-9.7-1.7l4-23.3
		L257.7,504.6z"/>
	<path class="st1" d="M311.5,478.3l9.7-1.3l6.4,46.6l29.2-4l1.2,8.9l-38.9,5.3L311.5,478.3z"/>
	<path class="st1" d="M399.8,461.2l-28.8,13.1l6,13.3l25.6-11.6l3.6,8l-25.6,11.6l6.2,13.7L416,496l3.6,8l-38.2,17.4l-23.2-51
		l37.8-17.2L399.8,461.2z"/>
	<path class="st1" d="M459.2,473.5l-7.4,6.6L420.6,445l-13.3,11.8l-6.1-6.8l34-30.2l6.1,6.8L428,438.4L459.2,473.5z"/>
	<path class="st1" d="M469.5,382.2l-16.6,27l12.4,7.6l14.7-23.9l7.5,4.6l-14.7,23.9l12.8,7.9l16.8-27.3l7.5,4.6l-21.9,35.7
		L440.3,413l21.7-35.4L469.5,382.2z"/>
	<path class="st1" d="M493.7,353.1c5.7-10.7,11.4-15.7,20.5-13.3c10.2,2.6,14.2,12.2,11.3,23.6c-2.1,8.3-7,15.4-14.5,20.4l-5.3-7.5
		c5.8-4,9.7-8.6,11.5-15.3c1.5-5.9-0.2-10.3-4.4-11.4c-4-1-6.6,0.6-11.5,10.1c-5.8,10.8-10.9,16.5-20.9,13.9
		c-9.5-2.4-13.8-11.8-11-22.6c2-7.9,6.1-13.6,11.9-17.9l5.9,7c-4.9,3.9-8.1,8.3-9.4,13.3c-1.4,5.6,0.6,9.6,4.2,10.5
		C486,364.9,488.5,362.9,493.7,353.1z"/>
</g>
<g>
	<path class="st1" d="M113.7,295.6c16.9-1.1,26,7.9,26.9,22.7c0.9,14.7-6.9,24.6-23.3,25.7L84.7,346l-0.6-9.9l32.2-2.1
		c10.5-0.7,15.8-6.4,15.2-15.3c-0.6-8.8-6.2-13.9-16.7-13.2l-32.6,2.1l-0.6-9.9L113.7,295.6z"/>
	<path class="st1" d="M96.3,229.9l2.8-9.4l54.3,16.2l-2.4,8l-47.6,18.4l38.6,11.5l-2.8,9.4L85,267.8l2.6-8.8l46.2-17.9L96.3,229.9z"
		/>
	<path class="st1" d="M171.1,210.1L158.3,227l-45.3-34.1l12.7-16.9c10.7-14.2,27.9-16.7,40.7-7.1
		C179.3,178.6,181.8,195.9,171.1,210.1z M133,181.4l-6.7,8.9l30.8,23.2l6.7-8.9c7.2-9.5,5.4-20.5-3.5-27.3
		C151.4,170.6,140.2,171.9,133,181.4z"/>
	<path class="st1" d="M170.6,130.2l35.3,44.3l-7.8,6.2l-35.3-44.3L170.6,130.2z"/>
	<path class="st1" d="M221.4,127.2c12.1-2.6,19.5-1.5,23.7,7c4.7,9.6-0.1,18.9-10.8,24.1c-7.8,3.8-16.5,4.7-25.2,2.2l2.3-9
		c6.9,1.9,13,1.9,19.3-1.2c5.5-2.7,7.8-6.9,5.9-10.9c-1.8-3.7-4.8-4.7-15.3-2.3c-12.1,2.7-19.8,2.4-24.4-7
		c-4.3-8.9,0.1-18.4,10.2-23.3c7.4-3.6,14.4-4.2,21.6-2.6l-1.5,9.1c-6.3-1.2-11.7-0.8-16.4,1.5c-5.2,2.5-7,6.7-5.3,10.2
		C207.3,129,210.5,129.6,221.4,127.2z"/>
	<path class="st1" d="M278.7,125.1l-11.1,1.8l2.8,18l-9.8,1.6l-8.8-56l22.1-3.5c13-2.1,22.4,4,24.2,15.4
		C300,115,291,123.1,278.7,125.1z M274.4,96L263,97.8l3.2,20.2l11.4-1.8c7.4-1.2,11.4-6,10.5-12C287,97.5,281.8,94.8,274.4,96z"/>
	<path class="st1" d="M361.9,123.6c-2.9,16.7-13.7,23.4-28.3,20.9c-14.5-2.5-22.3-12.5-19.6-28.6l5.5-32.2l9.8,1.7l-5.4,31.8
		c-1.8,10.4,2.6,16.9,11.4,18.4c8.7,1.5,14.9-2.9,16.7-13.2l5.5-32.2l9.8,1.7L361.9,123.6z"/>
	<path class="st1" d="M388.4,163.2l-8.9-4.7l22.3-41.9l-15.9-8.4l4.3-8.1l40.6,21.6l-4.3,8.1l-15.9-8.4L388.4,163.2z"/>
	<path class="st1" d="M473.5,172.6l-22.6-22.7l-10.5,10.4l20,20.2l-6.3,6.3l-20-20.2l-10.8,10.7l22.9,23l-6.3,6.3l-29.9-30.1
		l40.2-39.9l29.6,29.8L473.5,172.6z"/>
	<path class="st1" d="M454.3,232.3l-9.2-19l51-24.6l9.2,19c7.7,16,2.1,32.4-12.4,39.4C478.5,254,462,248.3,454.3,232.3z
		 M497.1,211.6l-4.9-10.1l-34.7,16.8l4.9,10.1c5.2,10.7,15.8,14.2,25.8,9.4C498.3,232.9,502.3,222.3,497.1,211.6z"/>
</g>
<path class="st3" d="M149.2,375.8l-18.9,2c-0.9,0.1-1.7-0.4-2-1.2l-7.7-17.3c-0.8-1.7-3.3-1.5-3.7,0.4l-4,18.6
	c-0.2,0.8-0.9,1.5-1.7,1.6l-18.9,2c-1.9,0.2-2.4,2.7-0.8,3.7l16.4,9.5c0.7,0.4,1.1,1.3,0.9,2.1l-4,18.6c-0.4,1.9,1.8,3.2,3.3,1.9
	l14.1-12.7c0.6-0.6,1.6-0.7,2.3-0.2l16.4,9.5c1.7,1,3.6-0.8,2.8-2.5l-7.7-17.3c-0.3-0.8-0.2-1.7,0.5-2.3l14.1-12.7
	C152.2,377.9,151.1,375.6,149.2,375.8z"/>
<path class="st3" d="M474.5,288.6l17.3-7.7c0.8-0.3,1.3-1.2,1.2-2l-2-18.9c-0.2-1.9,2.2-3,3.4-1.5l12.7,14.1
	c0.6,0.6,1.5,0.8,2.3,0.5l17.3-7.7c1.7-0.8,3.5,1.1,2.5,2.8l-9.5,16.4c-0.4,0.7-0.3,1.7,0.2,2.3l12.7,14.1c1.3,1.4,0,3.7-1.9,3.3
	l-18.6-3.9c-0.8-0.2-1.7,0.2-2.1,0.9l-9.5,16.4c-1,1.7-3.5,1.1-3.7-0.8l-2-18.9c-0.1-0.9-0.7-1.5-1.6-1.7l-18.6-3.9
	C473.1,292,472.8,289.4,474.5,288.6z"/>
</svg>
